<svg id="clock_1_" data-name="clock (1)" xmlns="http://www.w3.org/2000/svg" width="14.46" height="14.46" viewBox="0 0 14.46 14.46">
  <g id="Group_7322" data-name="Group 7322" transform="translate(6.67 3.355)">
    <g id="Group_7321" data-name="Group 7321">
      <path id="Path_8572" data-name="Path 8572" d="M239.305,123.931l-2.016-1.512v-3.08a.56.56,0,1,0-1.12,0v3.36a.559.559,0,0,0,.224.448l2.24,1.68a.56.56,0,0,0,.672-.9Z" transform="translate(-236.169 -118.779)" fill="#565a64"/>
    </g>
  </g>
  <g id="Group_7324" data-name="Group 7324">
    <g id="Group_7323" data-name="Group 7323">
      <path id="Path_8573" data-name="Path 8573" d="M7.23,0a7.23,7.23,0,1,0,7.23,7.23A7.238,7.238,0,0,0,7.23,0Zm0,13.34a6.11,6.11,0,1,1,6.11-6.11A6.117,6.117,0,0,1,7.23,13.34Z" fill="#565a64"/>
    </g>
  </g>
</svg>
