<svg xmlns="http://www.w3.org/2000/svg" width="11.68" height="14.376" viewBox="0 0 11.68 14.376">
  <g id="trash" transform="translate(-48)">
    <path id="Path_8568" data-name="Path 8568" d="M58.557,1.8H56.086V1.348A1.349,1.349,0,0,0,54.739,0h-1.8a1.349,1.349,0,0,0-1.348,1.348V1.8H49.123A1.124,1.124,0,0,0,48,2.92V4.492a.449.449,0,0,0,.449.449h.246l.388,8.15a1.346,1.346,0,0,0,1.346,1.284h6.822A1.346,1.346,0,0,0,58.6,13.092l.388-8.15h.246a.449.449,0,0,0,.449-.449V2.92A1.124,1.124,0,0,0,58.557,1.8Zm-6.065-.449A.45.45,0,0,1,52.942.9h1.8a.45.45,0,0,1,.449.449V1.8h-2.7ZM48.9,2.92a.225.225,0,0,1,.225-.225h9.434a.225.225,0,0,1,.225.225V4.043H48.9Zm8.8,10.129a.449.449,0,0,1-.449.428H50.429a.449.449,0,0,1-.449-.428l-.386-8.108h8.492Z" transform="translate(0)" fill="#e05437"/>
    <path id="Path_8569" data-name="Path 8569" d="M240.449,214.739a.449.449,0,0,0,.449-.449v-5.84a.449.449,0,0,0-.9,0v5.84A.449.449,0,0,0,240.449,214.739Z" transform="translate(-186.609 -202.16)" fill="#e05437"/>
    <path id="Path_8570" data-name="Path 8570" d="M320.449,214.739a.449.449,0,0,0,.449-.449v-5.84a.449.449,0,0,0-.9,0v5.84A.449.449,0,0,0,320.449,214.739Z" transform="translate(-264.363 -202.16)" fill="#e05437"/>
    <path id="Path_8571" data-name="Path 8571" d="M160.449,214.739a.449.449,0,0,0,.449-.449v-5.84a.449.449,0,0,0-.9,0v5.84A.449.449,0,0,0,160.449,214.739Z" transform="translate(-108.855 -202.16)" fill="#e05437"/>
  </g>
</svg>
